<svg width="815" height="855" viewBox="0 0 815 855" fill="none" xmlns="http://www.w3.org/2000/svg">
<circle cx="375.927" cy="570.334" r="274" fill="#E6D9D4" stroke="black" stroke-width="20"/>
<path d="M179.926 618.334H535.926V683.334L517.926 740.834L459.926 792.334L378.926 809.834L296.926 792.334L241.926 755.334L189.426 683.334L179.926 618.334Z" fill="#150000"/>
<path d="M300.926 773.334L334.926 726.834L387.926 705.334L442.926 710.334L485.426 740.834L496.426 764.334L466.926 789.834L387.926 808.834L311.926 799.334L296.426 789.834L300.926 773.334Z" fill="#3F0101"/>
<path d="M536.424 616.334C536.342 686.397 534.165 726.23 498.895 761.412C480.44 779.822 462.67 791.213 443.142 798.06C423.546 804.931 401.875 807.334 375.426 807.334C323.307 807.334 273.325 786.681 236.476 749.923C200.809 714.345 180.272 666.501 178.99 616.334L375.426 616.334L536.424 616.334Z" stroke="black" stroke-width="10"/>
<rect x="158.926" y="611.334" width="21" height="14" fill="black"/>
<path d="M297.926 793.334C297.926 783.834 297.72 784.108 303.147 771.004C308.575 757.901 316.53 745.995 326.559 735.967C336.588 725.938 348.493 717.983 361.597 712.555C374.7 707.128 388.744 704.334 402.926 704.334C417.109 704.334 431.153 707.128 444.256 712.555C457.359 717.983 469.265 725.938 479.294 735.967C489.323 745.995 492.499 752.731 497.926 765.834" stroke="black" stroke-width="10"/>
<path d="M387.926 483.334L410.926 446.834L453.426 424.334L496.926 432.834L531.926 464.334L542.926 506.334V555.334H387.926V483.334Z" fill="white"/>
<mask id="path-8-inside-1_128_2" fill="white">
<path d="M385.926 565.334C385.926 568.617 387.982 571.868 391.978 574.901C395.973 577.935 401.829 580.69 409.211 583.012C416.593 585.333 425.357 587.175 435.003 588.431C444.648 589.688 454.986 590.334 465.426 590.334C475.866 590.334 486.204 589.688 495.849 588.431C505.495 587.175 514.259 585.333 521.641 583.012C529.023 580.69 534.879 577.935 538.874 574.901C542.87 571.868 544.926 568.617 544.926 565.334L465.426 565.334L385.926 565.334Z"/>
</mask>
<path d="M385.926 565.334C385.926 568.617 387.982 571.868 391.978 574.901C395.973 577.935 401.829 580.69 409.211 583.012C416.593 585.333 425.357 587.175 435.003 588.431C444.648 589.688 454.986 590.334 465.426 590.334C475.866 590.334 486.204 589.688 495.849 588.431C505.495 587.175 514.259 585.333 521.641 583.012C529.023 580.69 534.879 577.935 538.874 574.901C542.87 571.868 544.926 568.617 544.926 565.334L465.426 565.334L385.926 565.334Z" fill="#030303" stroke="black" stroke-width="10" mask="url(#path-8-inside-1_128_2)"/>
<path d="M541.926 506.334C541.926 461.599 507.004 425.334 463.926 425.334C420.848 425.334 385.926 461.599 385.926 506.334" stroke="black" stroke-width="10"/>
<path d="M385.926 506.334L385.926 555.334H541.926V506.334" stroke="black" stroke-width="10"/>
<circle cx="502.426" cy="474.834" r="26.5" fill="black" stroke="black" stroke-width="10"/>
<path d="M157.926 487.834L183.926 446.334L221.426 432.334L262.426 446.334L285.926 484.834V556.334H157.926V487.834Z" fill="white"/>
<mask id="path-13-inside-2_128_2" fill="white">
<path d="M155.926 564.152C155.926 567.197 157.672 570.211 161.065 573.024C164.457 575.836 169.429 578.392 175.697 580.544C181.965 582.697 189.406 584.405 197.595 585.57C205.785 586.735 214.562 587.334 223.426 587.334C232.291 587.334 241.068 586.735 249.258 585.57C257.447 584.405 264.888 582.697 271.156 580.544C277.424 578.392 282.396 575.836 285.788 573.024C289.18 570.211 290.926 567.197 290.926 564.152L223.426 564.152L155.926 564.152Z"/>
</mask>
<path d="M155.926 564.152C155.926 567.197 157.672 570.211 161.065 573.024C164.457 575.836 169.429 578.392 175.697 580.544C181.965 582.697 189.406 584.405 197.595 585.57C205.785 586.735 214.562 587.334 223.426 587.334C232.291 587.334 241.068 586.735 249.258 585.57C257.447 584.405 264.888 582.697 271.156 580.544C277.424 578.392 282.396 575.836 285.788 573.024C289.18 570.211 290.926 567.197 290.926 564.152L223.426 564.152L155.926 564.152Z" fill="#030303" stroke="black" stroke-width="10" mask="url(#path-13-inside-2_128_2)"/>
<circle cx="248.426" cy="474.834" r="26.5" fill="black" stroke="black" stroke-width="10"/>
<path d="M288.379 509.443C288.379 467.962 258.729 434.334 222.153 434.334C185.577 434.334 155.926 467.962 155.926 509.443" stroke="black" stroke-width="10"/>
<path d="M155.926 509.443L155.926 554.88H288.379V509.443" stroke="black" stroke-width="10"/>
<g opacity="0.15">
<path d="M110.332 573.501L104.159 530.763L142.927 511.379V629.998L110.332 573.501Z" fill="black" stroke="black" stroke-width="5"/>
<path d="M573.569 614.023L579.294 539.157L597.958 532.666L604.781 572.689L573.569 614.023Z" fill="black" stroke="black" stroke-width="5"/>
<path d="M174.107 474.267L206.151 553.967L160.918 494.323L158.751 491.465L156.82 494.488L137.898 524.105L131.98 438.523L150.217 411.648L194.413 382.498L216.659 428.805L175.2 452.156L173.927 452.873L173.927 454.334L173.927 473.334L173.927 473.818L174.107 474.267Z" fill="black" stroke="black" stroke-width="5"/>
<path d="M383.988 495.783L383.735 496.905L384.421 497.827L410.112 532.326L369.863 504.038L336.696 437.296L435.096 378.643L529.823 420.579L599.013 458.098L579.579 532.597L498.151 455.024L497.831 454.719L497.426 454.542L430.926 425.542L429.341 424.851L428.135 426.09L391.635 463.59L391.143 464.096L390.988 464.783L383.988 495.783ZM293.419 535.763L243.367 443.097L259.787 418.9L354.228 516.657L388.163 620.754L293.419 535.763Z" fill="black" stroke="black" stroke-width="5"/>
</g>
<path d="M655 203L796.5 245.5L675 294.5L814.5 386L736.5 402.5L786.5 465.5L728 441L758.5 652L708 562L702.5 700L685.5 595L669 775.5L649.5 657.5L603.5 802.5V740.5L568.5 822L596.5 611.5L588.5 551.5L568.5 576L577.5 475.5L458 411.5L495.5 468.5L366 422L436 496L344.5 446.5L422.5 586L276 475.5L300.5 542L166.5 409L218.5 522L147.5 446.5L153.5 586L120.5 545L117.5 633.5L188 815L147.5 748.5L140.5 815L96.5 643.5L66 748.5V549L10 620.5L61.5 480L0 554.5L34.5 457L52.5 384L13 415L83.5 291.5L66 233V183.5L88.5 124.5L102 195.5L115 213.5V157.5L133 84L159 23V139L174 162.5L206.5 99L264.5 31.5L255.5 139L329 56L521 0L435 94L475 76.5L571 52L481.5 118L584.5 100L715.5 107.5L611.5 162.5L655 203Z" fill="black"/>
<path d="M645.984 603.73L601.316 723.257L620.891 608.255L620.951 607.905L620.911 607.553L607.726 491.335H641.58L654.878 534.553L645.984 603.73Z" fill="#3E3E3E" stroke="black" stroke-width="5"/>
<path d="M89.2987 314.965L100.903 287.579L123.518 274.462L177.921 328.865L220.201 403.081L257.575 484.335L133.769 372.63L89.2987 314.965Z" fill="#3E3E3E" stroke="black" stroke-width="5"/>
<path d="M93.4893 408.421L102.48 374.256L129.727 391.305L129.727 519.89L103.329 459.588L93.4893 408.421Z" fill="#3E3E3E" stroke="black" stroke-width="5"/>
<path d="M245.133 420.581L225.437 365.615L269.246 378.448L300.747 434.559L300.795 434.645L300.85 434.727L329.35 477.227L329.404 477.307L329.463 477.382L381.713 543.725L289.168 474.016L245.133 420.581Z" fill="#3E3E3E" stroke="black" stroke-width="5"/>
<path d="M173.525 286.042L265.025 307.193L325.129 340.311L225.263 322.943L188.505 302.849L173.525 286.042Z" fill="#3E3E3E" stroke="black" stroke-width="5"/>
<path d="M361.917 376.982L392.767 390.095L446.36 432.963L350.908 398.851L323.379 376.982L361.917 376.982Z" fill="#3E3E3E" stroke="black" stroke-width="5"/>
<path d="M522.93 391.838L576.836 433.643L336.533 315.093L336.378 315.017L336.215 314.963L188.715 265.963L187.985 265.72L187.245 265.93L151.571 276.048L131.358 267.842L170.655 242.835L239.088 242.835L461.699 304.228L528.764 326.583L550.74 342.698L576.567 371.435L537.604 350.63L537.37 350.504L537.114 350.431L495.114 338.431L495.047 338.412L494.98 338.397L446.48 327.397L437.095 325.269L444.257 331.696L463.757 349.196L463.857 349.285L463.966 349.364L522.93 391.838Z" fill="#3E3E3E" stroke="black" stroke-width="5"/>
<path d="M366.588 183.835L297.145 174.86L339.293 108.559L414.64 51.7531L374.053 97.6796L373.818 97.9463L373.666 98.2682L352.666 142.768L349.847 148.742L355.915 146.132L432.214 113.305L396.514 155.725L393.313 159.529L398.275 159.83L488.079 165.288L555.113 211.633L465.666 183.947L465.305 183.835L464.927 183.835L366.588 183.835Z" fill="#3E3E3E" stroke="black" stroke-width="5"/>
<path d="M303.02 175.547L252.451 166.553L327.417 70.4895L418.169 42.1295L336.855 107.892L336.43 108.236L336.187 108.725L303.02 175.547Z" fill="#858585" stroke="black" stroke-width="5"/>
<path d="M237.211 196.264L380.618 209.818L522.92 231.836L366.717 231.836L282.127 211.933L237.211 196.264Z" fill="#858585" stroke="black" stroke-width="5"/>
<path d="M182.617 166.395L201.588 119.163L234.905 81.1429L208.9 151.608L182.617 166.395Z" fill="#858585" stroke="black" stroke-width="5"/>
<path d="M126.564 201.891L121.953 157.46L134.475 95.9891L138.893 178.571L126.564 201.891Z" fill="#858585" stroke="black" stroke-width="5"/>
<path d="M239.591 240.926L239.265 240.836L238.927 240.836L169.427 240.836L168.614 240.836L167.956 241.314L131.579 267.77L124.384 256.788L152.331 210.943L196.879 210.943L361.814 245.762L570.861 307.381L462.322 302.352L239.591 240.926Z" fill="#858585" stroke="black" stroke-width="5"/>
<path d="M84.2131 380.472L104.824 375.416L90.6015 411.418L90.5022 411.669L90.4589 411.936L84.4588 448.936L84.4522 448.977L84.447 449.017L77.8942 499.983L71.5412 451.844L74.8917 401.445L84.2131 380.472Z" fill="#858585" stroke="black" stroke-width="5"/>
</svg>
